<svg xmlns="http://www.w3.org/2000/svg" width="54" height="54"><path d="M27 0A27 27 0 110 27 27 27 0 0127 0z" fill="#e83a1a"/><path d="M7.337 25h4.895v-1.309H10.7v-6.842H9.5a5.078 5.078 0 01-1.892.693v1h1.474v5.148H7.333zm14.125-3.476h-5.049v-1.4h5.049zm1.331-2.607h-3.212v-1.045h3.938v-1.221h-3.938v-.968H18.25v3.234h-3.08v3.817h7.623zm-7.777 7a7.024 7.024 0 001.43-2.42l-1.265-.308a6.058 6.058 0 01-1.376 2.141zm1.969-2.343a15.745 15.745 0 01.215 2.306l1.335-.165a14.736 14.736 0 00-.308-2.266zm2.244.011a13.631 13.631 0 01.771 2.24l1.264-.325a11.939 11.939 0 00-.836-2.178zm2.233-.066a12.164 12.164 0 011.352 2.361l1.266-.48a12.855 12.855 0 00-1.441-2.3zM30.1 16.31l-1.643-.165a12.192 12.192 0 01-.231 2.332c-.561.044-1.078.077-1.419.088a10.5 10.5 0 01-1.177 0l.132 1.5c.33-.055.913-.132 1.221-.187.209-.022.55-.066.946-.11a16.536 16.536 0 01-2.222 5.166l1.43.572a23.182 23.182 0 002.244-5.9c.308-.022.583-.044.759-.044.693 0 1.067.121 1.067 1a8.755 8.755 0 01-.44 3.047.815.815 0 01-.825.473 6.445 6.445 0 01-1.353-.231l.242 1.457a7.116 7.116 0 001.32.154 1.757 1.757 0 001.805-1.012 10.777 10.777 0 00.627-4.037c0-1.584-.825-2.1-1.991-2.1-.231 0-.561.022-.924.044.077-.4.154-.8.231-1.133.054-.276.131-.624.201-.914zm3.78 1.034l-1.309.556a12.648 12.648 0 011.849 4.185l1.4-.649a19.013 19.013 0 00-1.94-4.092zm6.358-1.2l-.352 1.32c.858.22 3.311.737 4.422.88L44.639 17a33.668 33.668 0 01-4.4-.855zm.062 2.212l-1.474-.209a40.581 40.581 0 01-.55 4.6l1.265.319a2.665 2.665 0 01.407-.638 3.916 3.916 0 013.058-1.3c.957 0 1.639.528 1.639 1.243 0 1.4-1.749 2.2-5.049 1.749l.423 1.441c4.576.385 6.16-1.155 6.16-3.157 0-1.331-1.122-2.519-3.047-2.519a5.385 5.385 0 00-3.245 1.045c.077-.63.275-1.969.413-2.574zM14.2 31.024h-3.322v.99H14.2zm.286 1.474h-4.169v1.034h4.169zm-.264 1.529H10.83v1h3.388zm-3.388 2.486h3.388v-.979H10.83zm2.244 2.838h-1.166v-1.265h1.166zm7.557-5.588v-1.232h-2.413v-1.837H16.88v1.837h-2.233v1.232h1.441c-.077 2.233-.22 4.609-1.881 6.072v-2.783H10.8V40.8h1.111v-.429h2.3v-.319a3.82 3.82 0 01.836.913 7.329 7.329 0 002.189-4.686H18.9c-.1 2.178-.209 3.069-.407 3.289a.444.444 0 01-.385.154 14 14 0 01-1.166-.055 3.114 3.114 0 01.374 1.243 9.637 9.637 0 001.43-.022 1.237 1.237 0 00.891-.484c.341-.429.462-1.65.594-4.8v-.539h-2.867c.033-.44.055-.869.077-1.309zm4.748-1.663v.6H23.7v-.6zM23.7 34.2v-.624h1.683v.624zm2.9.99V31.1h-4.2v9.856h1.3v-5.763zm1.269 1.84v1.3h-1.815v-1.3zm1.221 2.376v-3.454h-4.257v4.07h1.221v-.616zm-.484-5.192v-.638h1.738v.638zm1.738-2.123v.609h-1.738v-.609zm1.32-.99h-4.301v4.1h2.981v4.169c0 .2-.077.264-.286.264s-.957.022-1.6-.022a4.684 4.684 0 01.44 1.342 5.4 5.4 0 002.161-.254c.462-.209.605-.583.605-1.309zm6.325 4.114v1.76H35.9v-1.76zm1.3 3.014v-4.257h-4.666v5.093H35.9v-.836zm4.233-6.809h-9.911v1.32h7.271v6.534c0 .231-.1.308-.352.308s-1.221.011-2-.033a5.933 5.933 0 01.539 1.386 7.428 7.428 0 002.486-.242c.517-.22.7-.6.7-1.4V32.74h1.265z" fill="#fff"/></svg>