<svg xmlns="http://www.w3.org/2000/svg" width="38" height="38"><path d="M19 0A19 19 0 110 19 19 19 0 0119 0z" fill="#e83a1a"/><path d="M3.588 17h4.005v-1.071H6.342v-5.6h-.981a4.155 4.155 0 01-1.548.567v.819h1.206v4.212H3.588zm11.106-2.844h-4.131v-1.143h4.131zm1.089-2.133h-2.628v-.855h3.222v-1h-3.222v-.792h-1.089v2.646h-2.52v3.123h6.237zM9.42 17.747a5.747 5.747 0 001.17-1.98l-1.035-.252A4.956 4.956 0 018.43 17.27zm1.611-1.917a12.883 12.883 0 01.18 1.89l1.089-.135a12.057 12.057 0 00-.252-1.854zm1.836.009a11.152 11.152 0 01.633 1.836l1.035-.27a9.769 9.769 0 00-.684-1.782zm1.827-.054A9.952 9.952 0 0115.8 17.72l1.035-.4a10.518 10.518 0 00-1.178-1.877zm6.615-5.9l-1.341-.13a9.975 9.975 0 01-.189 1.908c-.459.037-.879.063-1.161.072a8.593 8.593 0 01-.963 0l.108 1.224c.27-.045.747-.108 1-.153.171-.018.45-.054.774-.09a13.53 13.53 0 01-1.819 4.23l1.17.468a18.967 18.967 0 001.836-4.824c.252-.018.477-.036.621-.036.567 0 .873.1.873.819a7.164 7.164 0 01-.36 2.493.667.667 0 01-.675.387 5.273 5.273 0 01-1.107-.189l.2 1.188a5.822 5.822 0 001.08.126 1.438 1.438 0 001.474-.828 8.818 8.818 0 00.513-3.3c0-1.3-.675-1.719-1.629-1.719-.189 0-.459.018-.756.036.063-.324.126-.657.189-.927.045-.228.108-.516.162-.75zm3.1.846l-1.071.459a10.348 10.348 0 011.512 3.42l1.143-.531a15.556 15.556 0 00-1.593-3.343zm4.752-.981l-.288 1.08c.7.18 2.709.6 3.618.72l.27-1.1a27.547 27.547 0 01-3.605-.695zm.054 1.809L28 11.393a33.2 33.2 0 01-.45 3.762l1.035.261a2.181 2.181 0 01.333-.522 3.2 3.2 0 012.5-1.062c.783 0 1.341.432 1.341 1.017 0 1.143-1.431 1.8-4.131 1.431l.348 1.179c3.744.315 5.04-.945 5.04-2.583a2.219 2.219 0 00-2.493-2.061 4.406 4.406 0 00-2.655.855c.063-.513.226-1.611.342-2.106zM8.974 20.656H6.256v.81h2.718zm.234 1.206H5.8v.846h3.411zm-.216 1.251H6.22v.819h2.772zM6.22 25.147h2.772v-.8H6.22zm1.836 2.322H7.1v-1.035h.954zm6.183-4.569v-1.011h-1.971v-1.5h-1.1v1.5H9.343V22.9h1.179c-.063 1.827-.18 3.771-1.539 4.968v-2.28h-2.79v3.069h.909v-.351h1.881v-.261a3.125 3.125 0 01.684.747 6 6 0 001.791-3.834h1.368c-.081 1.782-.171 2.511-.333 2.691a.363.363 0 01-.315.126c-.18 0-.558-.009-.954-.045a2.548 2.548 0 01.306 1.017 7.885 7.885 0 001.17-.018 1.012 1.012 0 00.729-.4c.279-.351.378-1.35.486-3.924v-.437h-2.349c.027-.36.045-.711.063-1.071zm3.438-1.359v.486H16.3v-.489zM16.3 23.257v-.513h1.377v.513zm2.376.81v-3.348h-3.438v8.064H16.3v-4.716zm1.035 1.503v1.062h-1.485V25.57zm1 1.944v-2.826h-3.484v3.33h1v-.5zm-.4-4.248v-.522h1.425v.522zm1.425-1.737v.495h-1.422v-.495zm1.08-.81H19.3v3.357h2.436v3.411c0 .162-.063.216-.234.216s-.783.018-1.305-.018a3.832 3.832 0 01.36 1.1 4.421 4.421 0 001.764-.207c.378-.171.495-.477.495-1.071zm4.725 3.366v1.44h-1.71v-1.44zm1.059 2.466v-3.483h-3.813v4.167h1.044v-.684zm3.468-5.571h-8.109v1.08h5.949v5.346c0 .189-.081.252-.288.252s-1 .009-1.638-.027a4.854 4.854 0 01.441 1.134 6.078 6.078 0 002.034-.2c.423-.18.576-.5.576-1.143V22.06h1.035z" fill="#fff"/></svg>